<svg xmlns="http://www.w3.org/2000/svg" viewBox="0 0 800 450">
  <defs>
    <linearGradient id="sky" x1="0" y1="0" x2="0" y2="1"><stop offset="0" stop-color="#3b2a6b"/><stop offset=".45" stop-color="#c2477a"/><stop offset=".75" stop-color="#ff9f6e"/><stop offset="1" stop-color="#ffd27a"/></linearGradient>
    <linearGradient id="sea" x1="0" y1="0" x2="0" y2="1"><stop offset="0" stop-color="#e8778a"/><stop offset="1" stop-color="#3b2a6b"/></linearGradient>
  </defs>
  <rect width="800" height="450" fill="url(#sky)"/>
  <g fill="#fff"><circle cx="90" cy="50" r="1.6"/><circle cx="200" cy="30" r="1.2"/><circle cx="330" cy="60" r="1.4"/><circle cx="700" cy="40" r="1.5"><animate attributeName="opacity" values="1;.2;1" dur="2s" repeatCount="indefinite"/></circle></g>
  <circle cx="400" cy="240" r="70" fill="#ffe08a"><animate attributeName="cy" values="236;246;236" dur="8s" repeatCount="indefinite"/></circle>
  <rect y="240" width="800" height="120" fill="url(#sea)"/>
  <g stroke="#ffe08a" stroke-width="4" opacity=".7" stroke-linecap="round">
    <line x1="340" y1="262" x2="460" y2="262"><animate attributeName="x1" values="340;360;340" dur="3s" repeatCount="indefinite"/></line>
    <line x1="360" y1="284" x2="440" y2="284"/><line x1="375" y1="306" x2="425" y2="306"><animate attributeName="opacity" values=".2;.9;.2" dur="2.5s" repeatCount="indefinite"/></line>
  </g>
  <!-- deck -->
  <rect y="350" width="800" height="100" fill="#7a4b2a"/>
  <g stroke="#5e3920" stroke-width="3"><line x1="0" y1="375" x2="800" y2="375"/><line x1="0" y1="400" x2="800" y2="400"/><line x1="0" y1="425" x2="800" y2="425"/></g>
  <!-- string lights -->
  <path d="M0 90 Q200 150 400 100 T800 90" stroke="#2a1d4a" stroke-width="2" fill="none"/>
  <g fill="#ffe08a">
    <circle cx="60" cy="108" r="7"><animate attributeName="opacity" values="1;.4;1" dur="1.6s" repeatCount="indefinite"/></circle>
    <circle cx="140" cy="125" r="7"><animate attributeName="opacity" values=".4;1;.4" dur="1.6s" repeatCount="indefinite"/></circle>
    <circle cx="230" cy="130" r="7"><animate attributeName="opacity" values="1;.4;1" dur="1.9s" repeatCount="indefinite"/></circle>
    <circle cx="320" cy="117" r="7"><animate attributeName="opacity" values=".4;1;.4" dur="1.7s" repeatCount="indefinite"/></circle>
    <circle cx="480" cy="95" r="7"><animate attributeName="opacity" values="1;.4;1" dur="1.5s" repeatCount="indefinite"/></circle>
    <circle cx="570" cy="86" r="7"><animate attributeName="opacity" values=".4;1;.4" dur="1.8s" repeatCount="indefinite"/></circle>
    <circle cx="660" cy="85" r="7"><animate attributeName="opacity" values="1;.4;1" dur="1.6s" repeatCount="indefinite"/></circle>
    <circle cx="750" cy="90" r="7"><animate attributeName="opacity" values=".4;1;.4" dur="2s" repeatCount="indefinite"/></circle>
  </g>
  <!-- tables -->
  <g>
    <ellipse cx="200" cy="360" rx="110" ry="18" fill="#fff"/><rect x="190" y="360" width="20" height="60" fill="#3a2414"/>
    <circle cx="160" cy="348" r="14" fill="#ff7a59"/><circle cx="160" cy="348" r="8" fill="#ffd27a"/>
    <ellipse cx="235" cy="350" rx="26" ry="9" fill="#e9eef3"/><path d="M220 346 q15 -16 30 0z" fill="#ff4f7b"/>
    <rect x="195" y="320" width="8" height="28" fill="#ffffff" opacity=".7"/><ellipse cx="199" cy="320" rx="6" ry="3" fill="#ffe08a"><animate attributeName="ry" values="3;5;3" dur=".8s" repeatCount="indefinite"/></ellipse>
  </g>
  <g>
    <ellipse cx="600" cy="360" rx="110" ry="18" fill="#fff"/><rect x="590" y="360" width="20" height="60" fill="#3a2414"/>
    <ellipse cx="570" cy="350" rx="28" ry="9" fill="#e9eef3"/><path d="M552 348 q18 -14 36 0z" fill="#ffa64d"/>
    <path d="M630 330 h18 l-4 20 h-10 z" fill="#ffe08a" opacity=".85"/><path d="M660 334 h16 l-4 16 h-8 z" fill="#ff7a59" opacity=".85"/>
  </g>
  <text x="400" y="200" font-family="Kanit,Arial,sans-serif" font-size="40" font-weight="800" fill="#fff" text-anchor="middle" letter-spacing="6" opacity=".95">ROSETA</text>
</svg>
